<svg width="330" height="450" viewBox="0 0 330 450" fill="none" xmlns="http://www.w3.org/2000/svg">
<g clip-path="url(#clip0_7_350)">
<path d="M274.59 449.91C274.74 448.86 274.09 448.06 273.68 447.21C267.65 434.88 259.13 424.59 248.32 416.16C239.88 409.58 230.72 404.19 221.04 399.64C212.86 395.79 204.53 392.29 196.13 388.95C193.81 388.02 191.51 387.04 189.23 386C185.35 384.24 182.45 381.42 180.37 377.7C178.47 374.31 176.95 370.75 175.65 367.09C174.01 362.45 172.45 357.78 170.84 353.13C169.55 349.39 168.1 345.71 166.33 342.17C162.77 335.06 157.64 329.41 150.9 325.19C141.9 319.55 132.2 315.74 121.74 313.88C116.74 312.99 111.7 312.29 106.69 311.43C103.83 310.94 101.02 310.19 98.29 309.15C94.49 307.71 91.38 305.36 88.9 302.16C86.76 299.4 85.08 296.37 83.59 293.23C80.41 286.5 77.94 279.49 75.93 272.34C73.05 262.09 70.35 251.78 67.64 241.48C64.75 230.47 61.66 219.52 57.46 208.92C52.2 195.64 45.47 183.18 36.64 171.9C31.44 165.25 25.6 159.26 18.76 154.28C13.57 150.49 7.96003 147.52 1.9 145.41C1.08 145.12 0.230004 144.92 -0.76 144.64C-0.87 145.29 -0.999999 145.73 -1.02 146.19C-1.06 147.16 -1.04 148.13 -1.04 149.1C-1.04 248.16 -1.04 347.23 -1.04 446.29C-1.04 447.5 -1.04 448.71 -1.05 449.92H274.59V449.91Z" fill="#026351"/>
<path d="M2.04004 299.26C2.19004 299.13 2.36004 299.01 2.49004 298.86C10.63 289.43 19.48 280.71 28.72 272.36C35.94 265.83 42.91 259.04 49.23 251.61C57.55 241.82 63.6 230.78 67.33 218.49C69.31 211.99 70.01 205.32 69.51 198.52C68.98 191.35 67.24 184.44 65.2 177.6C62.16 167.4 57.98 157.66 53.08 148.22C49.33 140.98 45.48 133.8 41.88 126.48C37.27 117.13 34.21 107.23 32.36 96.98C31.2 90.52 30.2 84.02 29.22 77.52C27.21 64.23 24.71 51.05 20.26 38.32C15.85 25.74 10.03 13.84 2.92004 2.57C2.67004 2.17 2.33004 1.82 2.04004 1.45V0C2.29004 0.31 2.57004 0.6 2.78004 0.93C13.23 17.15 20.97 34.54 25.48 53.32C27.34 61.05 28.7 68.87 29.9 76.72C31.02 83.97 32.14 91.22 33.48 98.43C35.64 110.02 39.72 120.94 45.18 131.38C49.13 138.92 53.14 146.44 56.88 154.09C62.34 165.26 66.42 176.93 69 189.11C70.28 195.15 70.76 201.25 70.27 207.4C69.74 214.01 67.9 220.3 65.42 226.43C60.55 238.46 53.34 248.92 44.39 258.27C38.32 264.6 31.92 270.58 25.45 276.49C17.45 283.8 9.89004 291.53 2.82004 299.75C2.59004 300.02 2.30004 300.23 2.04004 300.47V299.26Z" fill="#B59F73"/>
<path d="M253.12 434.97C253.27 434.14 253.45 433.3 254.56 433.23C255.28 433.19 255.86 433.53 256.08 434.17C256.46 435.27 255.69 435.78 254.96 436.25C255.18 438.23 254.57 439.3 253.14 439.54C251.96 439.74 250.87 439.02 250.58 437.85C250.24 436.48 251.04 435.56 253.12 434.97Z" fill="#B59F73"/>
<path d="M273.9 432.99C275.08 432.99 275.91 433.86 275.9 435.08C275.89 436.28 275.11 437.13 274.01 437.14C272.78 437.15 271.82 436.23 271.83 435.05C271.83 433.89 272.75 432.99 273.9 432.99Z" fill="#B59F73"/>
<path d="M226.65 430.55C226.66 431.6 225.7 432.63 224.71 432.65C223.71 432.66 222.83 431.76 222.81 430.69C222.78 429.54 223.62 428.64 224.71 428.64C225.76 428.64 226.64 429.51 226.65 430.55Z" fill="#B59F73"/>
<path d="M182.57 421.72C181.91 421.49 181.23 421.18 181.38 420.25C181.47 419.67 181.84 419.33 182.43 419.27C183.27 419.18 183.54 419.75 183.65 420.23C184.37 420.57 185 420.78 185.53 421.16C185.76 421.32 185.84 421.81 185.84 422.15C185.84 422.91 185.26 423.47 184.46 423.55C183.48 423.64 182.93 423.13 182.57 421.73V421.72Z" fill="#B59F73"/>
<path d="M215.09 432.6C214.01 432.6 213.04 431.65 213.07 430.61C213.09 429.62 213.85 428.9 214.88 428.9C216.02 428.9 216.91 429.76 216.89 430.87C216.87 431.86 216.1 432.61 215.1 432.61L215.09 432.6Z" fill="#B59F73"/>
<path d="M311.55 419.91C311.53 420.97 310.73 421.82 309.78 421.81C308.87 421.79 308.16 421.01 308.19 420.05C308.22 419.03 309.05 418.16 309.99 418.16C310.93 418.16 311.57 418.89 311.55 419.91Z" fill="#B59F73"/>
<path d="M248.21 431.56C248.19 432.46 247.38 433.24 246.48 433.23C245.53 433.22 244.74 432.35 244.79 431.39C244.84 430.49 245.58 429.78 246.44 429.78C247.38 429.78 248.23 430.64 248.21 431.56Z" fill="#B59F73"/>
<path d="M233.19 397.21C233.95 397.19 234.52 397.7 234.56 398.44C234.6 399.24 233.87 400 233.05 400.01C232.31 400.02 231.78 399.48 231.77 398.7C231.77 397.87 232.37 397.23 233.18 397.2L233.19 397.21Z" fill="#B59F73"/>
<path d="M253.86 418.05C253.86 418.78 253.32 419.36 252.61 419.39C251.82 419.42 251.17 418.75 251.19 417.93C251.21 417.18 251.76 416.64 252.5 416.66C253.27 416.68 253.86 417.28 253.87 418.05H253.86Z" fill="#B59F73"/>
<path d="M241.46 397.45C241.49 396.78 241.99 396.31 242.63 396.33C243.29 396.36 243.85 396.96 243.81 397.62C243.78 398.24 243.22 398.76 242.61 398.74C241.94 398.73 241.43 398.16 241.46 397.45Z" fill="#B59F73"/>
<path d="M192.69 436.46C193.34 436.46 193.85 436.93 193.86 437.57C193.87 438.22 193.3 438.8 192.64 438.79C192.04 438.79 191.61 438.36 191.58 437.73C191.54 436.99 192 436.47 192.7 436.46H192.69Z" fill="#B59F73"/>
<path d="M300.43 414.86C301.08 414.87 301.52 415.28 301.53 415.87C301.53 416.48 300.98 416.99 300.36 416.97C299.74 416.95 299.21 416.38 299.26 415.79C299.31 415.22 299.79 414.84 300.44 414.86H300.43Z" fill="#B59F73"/>
<path d="M281.64 425.85C281.08 425.84 280.6 425.35 280.67 424.84C280.74 424.32 281.08 424.08 281.59 424.06C282.17 424.05 282.59 424.49 282.54 425.06C282.5 425.53 282.12 425.86 281.64 425.85Z" fill="#B59F73"/>
<path d="M329.92 436.91C329.91 437.44 329.5 437.84 329 437.79C328.49 437.74 328.2 437.43 328.16 436.93C328.12 436.43 328.55 436 329.05 435.99C329.58 435.99 329.95 436.36 329.93 436.91H329.92Z" fill="#B59F73"/>
<path d="M306.04 438.51C306.02 439.03 305.62 439.4 305.11 439.38C304.59 439.37 304.23 438.99 304.23 438.46C304.23 437.95 304.62 437.51 305.09 437.5C305.6 437.49 306.07 437.98 306.05 438.51H306.04Z" fill="#B59F73"/>
<path d="M275.23 431.17C275.5 430.58 275.94 430.36 276.43 430.6C276.68 430.73 276.88 431.13 276.92 431.43C276.94 431.59 276.61 431.92 276.39 431.97C275.8 432.11 275.38 431.86 275.23 431.16V431.17Z" fill="#B59F73"/>
<path d="M244.89 426.97C244.72 427.1 244.46 427.41 244.15 427.49C243.72 427.6 243.29 427.14 243.3 426.69C243.32 426.22 243.59 425.94 244.04 425.9C244.47 425.86 244.87 426.29 244.88 426.97H244.89Z" fill="#B59F73"/>
<path d="M272.87 409.11C272.72 409.67 272.36 409.91 271.87 409.68C271.65 409.57 271.45 409.2 271.44 408.93C271.44 408.75 271.75 408.45 271.97 408.4C272.51 408.28 272.75 408.66 272.87 409.11Z" fill="#B59F73"/>
<path d="M183.01 415.54C182.89 416.09 182.58 416.38 182.08 416.2C181.88 416.13 181.67 415.79 181.67 415.58C181.67 415.37 181.89 415.04 182.08 414.97C182.6 414.78 182.87 415.11 183.01 415.55V415.54Z" fill="#B59F73"/>
<path d="M228 249.84C226.12 250.55 224.21 251.2 222.38 251.97C209.12 257.58 196.65 264.3 185.11 272.38C172.44 281.25 159.18 289.4 145.39 296.87C139.08 300.28 132.54 303.33 126.04 306.43C115.28 311.57 104.85 317.18 94.87 323.43C91.85 325.32 89.01 327.4 86.29 329.62C81.19 333.78 76.1 337.96 70.96 342.1C63.19 348.35 56.24 355.24 49.82 362.58C42.72 370.7 36.22 379.17 29.75 387.68C23.9 395.38 18.03 403.07 12.15 410.76C9.48999 414.24 6.78999 417.7 4.10999 421.17C2.94999 422.67 1.80999 424.17 0.66999 425.68C0.44999 425.97 0.27999 426.3 -0.0100098 426.77C0.36999 426.81 0.67999 426.92 0.80999 426.84C1.15999 426.62 1.50999 426.34 1.74999 426.02C7.33999 418.67 12.91 411.31 18.5 403.97C26.17 393.89 33.76 383.76 41.56 373.75C47.05 366.7 52.95 359.9 59.39 353.5C62.86 350.05 66.63 346.81 70.42 343.63C76 338.94 81.74 334.4 87.39 329.78C91.12 326.73 95.23 324.12 99.41 321.59C109.28 315.63 119.57 310.28 130.15 305.35C142.19 299.74 153.69 293.37 164.87 286.53C172.42 281.91 179.79 277.09 186.98 272.06C196.95 265.09 207.76 259.29 219.03 254.14C221.64 252.95 224.3 251.84 226.94 250.68C227.36 250.5 227.75 250.28 228.15 250.08C228.1 249.99 228.05 249.91 227.99 249.82L228 249.84Z" fill="#B59F73"/>
<path d="M66.7 339.74C66.78 339.58 66.87 339.43 66.93 339.27C68.1 335.98 70.22 333.19 72.79 330.64C76.14 327.32 79.6 324.1 83.36 321.13C86.65 318.53 89.81 315.8 93.06 313.16C95.66 311.06 98.31 309 100.95 306.93C106.49 302.58 111.21 297.63 115.21 292.13C121.04 284.11 127.45 276.46 134.05 268.93C138.91 263.38 144.51 258.47 150.49 253.87C155.42 250.08 160.4 246.33 165.32 242.53C172 237.38 177.87 231.56 183.25 225.35C186.73 221.34 190.25 217.37 193.18 213.02C193.35 212.77 193.49 212.52 193.65 212.26C193.58 212.22 193.52 212.17 193.45 212.13C193.22 212.39 192.97 212.64 192.75 212.91C190.77 215.34 188.85 217.81 186.81 220.19C183.09 224.52 179.3 228.82 175.19 232.88C170.5 237.51 165.29 241.66 159.97 245.71C156.18 248.59 152.4 251.47 148.61 254.36C141.5 259.78 135.41 266.01 129.78 272.63C124.29 279.09 118.96 285.63 114.01 292.42C109.73 298.29 104.39 303.32 98.5 307.94C94.23 311.29 90.05 314.74 85.84 318.15C84.73 319.05 83.64 319.97 82.52 320.85C78.44 324.05 74.74 327.57 71.24 331.26C69.49 333.1 68.06 335.11 67.18 337.4C66.9 338.13 66.72 338.9 66.5 339.65C66.57 339.67 66.64 339.7 66.72 339.73L66.7 339.74Z" fill="#B59F73"/>
<path d="M30.4699 376.55C30.4699 375.99 30.4399 375.43 30.4699 374.87C30.5799 372.79 30.7099 370.71 30.8299 368.63C30.9099 367.15 30.9999 365.68 31.0699 364.2C31.2499 360.34 31.7199 356.51 32.4699 352.7C33.0099 349.91 33.4699 347.1 34.0899 344.33C35.0799 339.89 36.6999 335.59 38.1799 331.26C40.1699 325.43 42.1899 319.61 43.7299 313.67C44.6599 310.11 45.2999 306.51 45.4899 302.85C45.7099 298.84 45.9599 294.83 46.1199 290.82C46.4299 283.11 47.7999 275.53 49.6899 268.01C49.7999 267.58 49.8599 267.14 49.7699 266.63C49.6599 266.81 49.4999 266.98 49.4499 267.18C48.8199 269.46 48.1099 271.73 47.6099 274.03C46.9699 277.02 46.4799 280.03 45.9899 283.05C45.7599 284.45 45.6599 285.87 45.5599 287.29C45.4499 288.8 45.4099 290.31 45.3399 291.82C45.1899 295.11 45.0599 298.4 44.8699 301.69C44.4899 308.45 42.8499 315 40.7099 321.47C38.6599 327.66 36.5699 333.84 34.5499 340.04C33.4299 343.49 32.7099 347.02 32.1499 350.58C31.8799 352.28 31.5299 353.97 31.2599 355.67C31.0499 357.04 30.8399 358.42 30.7399 359.8C30.4899 363.23 30.2999 366.67 30.0899 370.1C30.0299 371.15 29.8899 372.21 29.9299 373.26C29.9599 374.36 30.1599 375.46 30.2799 376.57C30.3499 376.57 30.4099 376.57 30.4799 376.57L30.4699 376.55Z" fill="#B59F73"/>
<path d="M113.69 326.17C114.38 326.08 114.96 326.05 115.52 325.91C118.01 325.29 120.55 325.36 123.06 325.65C126.65 326.06 130.25 326.51 133.78 327.18C138.86 328.14 143.89 329.26 148.93 330.4C155.29 331.83 161.66 333.22 168.13 334.22C171.52 334.75 174.96 335.09 178.4 335.38C186.49 336.07 194.61 335.88 202.72 335.97C207.68 336.02 212.64 336.22 217.6 336.35C218.04 336.36 218.48 336.35 219.16 336.35C218.87 336.15 218.77 336.02 218.66 336.01C217.98 335.93 217.3 335.84 216.62 335.82C213.58 335.73 210.53 335.66 207.49 335.6C201.02 335.47 194.55 335.43 188.09 335.2C183.31 335.03 178.52 334.73 173.77 334.28C168.6 333.79 163.52 332.77 158.47 331.71C151.26 330.18 144.07 328.57 136.87 327.02C132.72 326.13 128.5 325.51 124.25 325.08C122.34 324.89 120.44 324.72 118.52 324.91C118.08 324.95 117.64 325.03 117.22 325.14C116.09 325.46 114.96 325.8 113.72 326.18L113.69 326.17Z" fill="#B59F73"/>
<path d="M145.74 397.55C144.08 397.01 142.42 396.47 140.75 395.94C134.34 393.93 127.94 391.9 121.51 389.93C117.7 388.76 113.8 387.82 109.79 387.36C107.83 387.14 105.83 387.14 103.85 387.19C99.8101 387.28 95.7701 387.56 91.7401 387.24C89.1201 387.04 86.5201 386.68 83.9001 386.43C82.3001 386.27 80.7001 386.12 79.1001 386.06C76.8801 385.98 74.6501 385.94 72.4301 385.97C70.0701 385.99 67.7101 386.06 65.3501 386.2C62.9601 386.34 60.5801 386.54 58.2101 386.8C53.3201 387.34 48.5301 388.32 43.7301 389.28C41.9701 389.63 40.2201 390.07 38.4901 390.52C37.8101 390.69 37.1701 390.99 36.5601 391.37C38.7201 390.93 40.8701 390.46 43.0301 390.07C47.5401 389.24 52.0501 388.35 56.5901 387.67C60.7701 387.04 65.0001 386.72 69.2501 386.67C70.6201 386.65 71.9901 386.54 73.3601 386.54C77.2001 386.54 81.0201 386.75 84.8201 387.21C90.0201 387.84 95.2301 388.16 100.48 387.95C101.64 387.9 102.8 387.85 103.97 387.79C108.12 387.58 112.14 388.21 116.12 389.16C121.84 390.52 127.35 392.42 132.93 394.14C137.02 395.41 141.18 396.51 145.3 397.69C145.42 397.72 145.56 397.72 145.69 397.73C145.71 397.67 145.72 397.61 145.74 397.55Z" fill="#B59F73"/>
<path d="M162.81 369.04C162.38 368.89 161.96 368.73 161.53 368.61C154.75 366.73 147.88 365.11 140.95 363.73C133.71 362.29 126.74 360.2 120.07 357.34C117.08 356.06 114.16 354.67 111.17 353.4C105.69 351.06 99.8799 349.57 93.9899 348.34C90.4699 347.61 86.8999 347.1 83.3499 346.5C82.7099 346.39 82.0699 346.28 81.4099 346.27C82.4499 346.84 83.6199 347.01 84.7699 347.18C91.0399 348.13 97.1899 349.54 103.24 351.27C107.71 352.55 111.94 354.34 116.08 356.28C121.9 359 127.9 361.35 134.26 362.88C139 364.02 143.81 364.97 148.58 366.04C152.85 367 157.1 368.03 161.35 369.03C161.8 369.14 162.27 369.2 162.72 369.29C162.75 369.21 162.78 369.13 162.81 369.05V369.04Z" fill="#B59F73"/>
<path d="M222.61 336.46C224.14 336.59 225.67 336.7 227.19 336.85C229.94 337.11 232.71 337.28 235.44 337.67C242.31 338.67 249.16 339.79 256.02 340.85C259.04 341.32 262.07 341.79 265.1 342.23C266.13 342.38 267.17 342.44 268.23 342.42C267.01 342.21 265.79 342 264.57 341.79C257.57 340.59 250.57 339.37 243.56 338.22C240.31 337.69 237.03 337.25 233.74 336.88C230.55 336.53 227.35 336.31 224.15 336.06C223.64 336.02 223.11 336.14 222.59 336.18C222.59 336.27 222.61 336.36 222.61 336.45V336.46Z" fill="#B59F73"/>
<path d="M166.39 370.43C167.49 370.74 168.59 371.05 169.68 371.35C175.62 373.01 181.38 375.07 187.03 377.37C192.65 379.65 198.31 381.87 204.14 383.71C204.88 383.94 205.64 384.12 206.39 384.32C206.65 384.39 206.91 384.42 207.27 384.32C206.95 384.16 206.65 383.96 206.31 383.84C204.81 383.33 203.28 382.88 201.81 382.32C196.22 380.21 190.62 378.08 185.06 375.91C179.27 373.65 173.36 371.69 167.21 370.34C167.05 370.3 166.88 370.27 166.71 370.25C166.61 370.24 166.51 370.26 166.41 370.27L166.38 370.42L166.39 370.43Z" fill="#B59F73"/>
<path d="M249.99 238.55C249.09 238.61 238.28 244.34 237.45 245.14C238.6 244.9 239.4 244.4 240.25 244.02C241.11 243.64 241.93 243.22 242.76 242.8C243.62 242.36 244.47 241.91 245.31 241.46C246.13 241.02 246.95 240.59 247.74 240.11C248.53 239.63 249.46 239.3 249.98 238.55H249.99Z" fill="#B59F73"/>
<path d="M230.91 248.68C232.31 248.43 233.43 247.75 234.71 247.03C234.42 246.91 234.25 246.78 234.16 246.81C232.95 247.25 231.83 247.83 230.92 248.68H230.91Z" fill="#B59F73"/>
<path d="M203.83 197.32C203.38 198.51 203.02 199.74 202.45 200.89C200.75 204.35 199.06 207.82 197.19 211.21C193.41 218.05 189.33 224.76 184.49 231.08C177.68 239.96 170.13 248.31 161.36 255.77C157.02 259.47 152.38 262.87 147.66 266.17C141.47 270.5 135.68 275.2 130.29 280.28C126.98 283.4 124.02 286.76 121.21 290.23C117.76 294.49 113.91 298.46 109.8 302.23C108.78 303.17 107.76 304.1 106.81 305.1C103.75 308.31 100.2 311.04 96.5199 313.68C91.3599 317.38 86.1899 321.06 81.1699 324.9C75.2199 329.45 69.9099 334.53 65.7699 340.49C65.6299 340.7 65.4899 340.91 65.3699 341.12C65.3499 341.16 65.3799 341.23 65.3999 341.35C65.8499 341.24 65.9699 340.87 66.1999 340.61C68.1599 338.36 69.9999 336.02 72.0799 333.86C76.2499 329.51 80.9999 325.68 86.0299 322.11C91.3699 318.32 96.5799 314.41 101.82 310.51C102.92 309.7 103.91 308.76 104.89 307.84C107.25 305.61 109.51 303.29 111.92 301.11C115.73 297.66 119.12 293.9 122.28 289.98C127.78 283.17 134.3 277.19 141.41 271.71C145.12 268.85 148.98 266.14 152.81 263.39C163.11 256.01 172.01 247.49 179.94 238.12C187.7 228.95 193.99 219.04 199.49 208.71C200.01 207.73 200.55 206.75 201.09 205.78C201.11 205.74 201.18 205.72 201.34 205.63C200.77 207.33 200.23 208.94 199.7 210.55C198.52 214.14 197.33 217.73 195.72 221.2C193.74 225.47 191.16 229.43 188.17 233.21C182.32 240.58 176.68 248.09 170.5 255.26C165.99 260.48 161.31 265.59 155.65 269.89C151.89 272.75 148.01 275.49 144.11 278.2C135.88 283.9 127.97 289.91 120.56 296.42C120.06 296.86 119.59 297.32 119.11 297.77C119.17 297.83 119.23 297.88 119.29 297.94C119.55 297.73 119.82 297.53 120.08 297.32C124.99 293.46 129.81 289.51 134.83 285.76C139.53 282.25 144.38 278.88 149.27 275.56C157.72 269.81 164.9 263.01 171.3 255.52C178.12 247.53 184.45 239.23 190.83 230.97C194.6 226.09 197.13 220.67 199.01 215.03C201.14 208.64 203.15 202.21 205.2 195.8C205.33 195.38 205.55 194.94 205.18 194.37C204.86 194.64 204.54 194.84 204.32 195.1C203.28 196.34 202.25 197.58 201.25 198.84C197.77 203.26 194.17 207.6 190.13 211.64C188.09 213.68 185.96 215.65 183.8 217.58C176.92 223.72 169.37 229.16 161.47 234.25C156.85 237.22 152.33 240.32 147.84 243.44C141.64 247.75 136.4 252.89 131.84 258.56C127.51 263.94 123.79 269.65 119.95 275.29C116.43 280.47 112.93 285.66 109.25 290.75C105.63 295.76 101.31 300.29 96.2099 304.21C90.8599 308.33 86.0299 312.91 81.3599 317.63C79.1099 319.91 76.9699 322.26 74.7799 324.59C74.5299 324.86 74.3399 325.16 74.1199 325.45C74.1799 325.49 74.2499 325.53 74.3099 325.57C74.5999 325.26 74.8999 324.95 75.1999 324.65C82.3099 317.4 89.5399 310.26 97.7099 303.92C101.95 300.62 105.49 296.78 108.71 292.71C112.69 287.68 116.14 282.35 119.72 277.1C123.02 272.26 126.32 267.42 129.74 262.65C135.47 254.66 142.57 247.75 151.16 242.05C156.11 238.77 161.07 235.48 166.04 232.21C174.75 226.48 182.73 220.05 190 212.94C194.2 208.83 197.93 204.38 201.5 199.83C202.18 198.96 202.88 198.11 203.57 197.25C203.66 197.28 203.75 197.31 203.84 197.34L203.83 197.32Z" fill="#B59F73"/>
<path d="M219.32 388.69C219.31 388.4 218.64 388.45 219.01 388.03C218.8 387.93 218.6 387.81 218.38 387.74C214.5 386.63 211.06 384.75 207.66 382.83C204.49 381.04 201.42 379.11 198.26 377.3C191.91 373.68 185.09 370.89 178 368.6C171.47 366.49 164.84 364.71 158.04 363.44C153.73 362.64 149.4 361.87 145.06 361.18C138.13 360.08 131.47 358.22 124.97 355.86C119.25 353.78 113.48 351.8 107.55 350.21C103.85 349.22 100.05 348.61 96.2299 348.09C93.2999 347.69 90.3599 347.28 87.4299 346.88C86.7399 346.79 86.0299 346.75 85.3299 346.69C85.3199 346.75 85.2999 346.81 85.2899 346.88C85.8299 346.97 86.3599 347.08 86.8999 347.16C92.0799 347.97 97.2699 348.7 102.43 349.6C108.05 350.59 113.38 352.41 118.69 354.28C122.06 355.46 125.43 356.64 128.79 357.83C134.43 359.83 140.33 361.01 146.27 362.05C152.61 363.15 158.98 364.11 165.2 365.67C174.7 368.04 184 370.88 192.67 375.11C195.75 376.61 198.68 378.36 201.65 380.03C204.3 381.53 206.91 383.08 209.54 384.61C209.72 384.72 209.89 384.85 210 385.09C209.32 384.91 208.65 384.72 207.97 384.56C204 383.65 200.03 382.76 196.06 381.83C188.96 380.16 181.86 378.47 175.03 376.03C170.47 374.4 165.95 372.65 161.35 371.12C156.01 369.34 150.57 367.79 145.21 366.06C140.2 364.45 135.23 362.74 130.24 361.09C129.2 360.74 128.13 360.45 127.07 360.14C127.04 360.2 127.01 360.26 126.98 360.31C127.22 360.42 127.46 360.54 127.71 360.62C137.97 364.14 148.11 367.91 158.59 370.93C162.32 372 165.96 373.35 169.58 374.71C176.83 377.44 184.25 379.69 191.88 381.42C196.61 382.49 201.35 383.57 206.06 384.69C207.97 385.15 209.84 385.74 211.73 386.27C212 386.35 212.26 386.46 212.5 386.66C212.33 386.66 212.17 386.67 212 386.66C210.47 386.5 208.95 386.29 207.42 386.18C204.28 385.95 201.14 385.81 198 385.58C195.58 385.4 193.17 385.11 190.75 384.92C187.44 384.66 184.17 384.22 180.91 383.64C170.92 381.86 161.54 378.78 152.94 373.86C148.58 371.36 144.1 369.02 139.6 366.73C135.13 364.45 130.26 363.02 125.31 361.81C118.26 360.09 111.58 357.59 105.16 354.49C98.0599 351.06 90.5399 348.48 82.7699 346.48C82.5799 346.43 82.3899 346.41 82.1199 346.54C82.4999 346.69 82.8699 346.86 83.2599 346.99C85.7599 347.8 88.2899 348.56 90.7699 349.4C96.2699 351.26 101.63 353.41 106.8 355.89C112.45 358.6 118.39 360.65 124.58 362.13C131.54 363.79 138.05 366.3 144.14 369.69C146.92 371.24 149.74 372.73 152.48 374.33C159.23 378.26 166.55 381.03 174.33 382.89C178.86 383.97 183.43 384.83 188.1 385.27C192.69 385.7 197.29 386.11 201.88 386.48C204.26 386.67 206.67 386.71 209.05 386.93C212.39 387.23 215.67 387.8 218.9 388.61C219 388.63 219.1 388.65 219.3 388.68L219.32 388.69Z" fill="#B59F73"/>
<path d="M61.7002 350.53C61.8002 350.17 61.8802 349.79 62.0102 349.44C63.0302 346.72 64.1202 344.02 65.0502 341.29C65.8602 338.92 66.6102 336.53 68.0102 334.36C69.7802 331.6 71.5002 328.81 73.4302 326.14C78.7602 318.75 84.9702 311.96 91.6602 305.5C98.3602 299.02 104.15 291.97 109.02 284.32C113.41 277.42 118.09 270.67 123.04 264.06C129.42 255.52 136.82 247.76 145.24 240.71C151.43 235.52 158.02 230.75 164.55 225.91C170.68 221.36 176.94 216.93 183.04 212.35C190.03 207.1 196.79 201.62 203.14 195.76C203.57 195.37 204.02 195 204.47 194.63C204.8 194.35 205.16 194.24 205.64 194.55C205.67 194.77 205.77 195.04 205.73 195.29C205.46 196.96 205.28 198.65 204.86 200.29C203.58 205.23 202.14 210.13 200.87 215.07C199.04 222.2 196.05 228.91 191.6 235.08C186.17 242.63 180.78 250.2 175.23 257.68C170.6 263.92 165.21 269.62 158.88 274.61C157.91 275.38 156.91 276.11 155.94 276.87C155.79 276.99 155.68 277.15 155.55 277.29C155.96 277.23 156.24 277.08 156.53 276.92C161.84 273.91 166.8 270.48 171.61 266.88C178.02 262.09 184.63 257.54 191.66 253.48C197.22 250.27 202.85 247.15 208.92 244.73C216.43 241.72 224.09 239.01 231.88 236.63C241.41 233.71 251.11 231.26 260.88 229.01C262.23 228.7 263.62 228.5 265 228.31C265.62 228.22 266.3 228.16 266.85 228.6C267 229.24 266.46 229.52 266.05 229.87C264.99 230.77 263.9 231.65 262.87 232.57C260.45 234.75 258.07 236.96 255.64 239.14C247.59 246.36 239.53 253.56 231.48 260.78C226.63 265.13 222.07 269.75 216.87 273.78C210.64 278.6 204.32 283.33 198.01 288.08C193 291.85 187.67 295.24 181.97 298.16C172.29 303.13 162.44 307.82 151.98 311.41C147.77 312.85 143.58 314.35 139.59 316.23C139.24 316.4 138.9 316.59 138.49 316.8C138.65 316.85 138.72 316.89 138.77 316.88C139.14 316.81 139.5 316.73 139.86 316.64C143.55 315.82 147.27 315.16 151.07 314.97C157.36 314.66 163.57 315.18 169.71 316.5C174.34 317.5 178.81 318.92 183.31 320.26C187.98 321.65 192.63 323.07 197.45 324.01C203.91 325.26 210.48 325.86 217.04 326.53C222 327.04 226.96 327.57 231.91 328.15C238.81 328.96 245.54 330.45 252.18 332.26C257.56 333.72 262.66 335.79 267.76 337.85C272.8 339.89 277.86 341.89 283.09 343.51C284.64 343.99 286.15 344.55 287.68 345.09C288.23 345.29 288.73 345.55 288.81 346.16C288.46 346.82 287.77 346.64 287.19 346.65C281.78 346.71 276.37 346.7 270.96 346.84C267.61 346.92 264.26 347.18 260.92 347.41C257.23 347.66 253.56 348.1 249.87 348.2C244.94 348.33 240 348.27 235.07 348.18C230.65 348.11 226.24 347.82 221.83 347.75C213.4 347.63 204.98 347.58 196.55 347.55C191.21 347.53 185.86 347.5 180.54 347C176.83 346.65 173.12 346.31 169.43 345.83C163.03 344.99 156.72 343.74 150.48 342.26C141.04 340.02 131.61 337.72 122.38 334.83C115.12 332.56 107.72 330.72 100.18 329.31C98.8502 329.06 97.4802 328.74 96.1402 328.78C92.9202 328.89 89.7502 329.39 86.7402 330.47C86.4802 330.56 86.1902 330.6 85.9202 330.67C85.8702 330.61 85.8202 330.55 85.7602 330.49C87.5002 327.85 89.2302 325.22 91.0302 322.49C90.7002 322.73 90.4502 322.91 90.2002 323.09C88.4102 324.45 86.6602 325.86 84.8102 327.15C81.6202 329.38 78.3402 331.52 75.1402 333.75C71.2902 336.42 67.9002 339.48 65.5302 343.32C65.1602 343.93 64.8702 344.58 64.5802 345.22C63.8802 346.76 63.2102 348.31 62.5202 349.85C62.4002 350.12 62.2102 350.35 62.0502 350.61C61.9402 350.58 61.8302 350.55 61.7202 350.53H61.7002ZM260.54 229.85C251.05 232.08 241.61 234.44 232.34 237.3C223.88 239.91 215.51 242.76 207.44 246.21C199.28 249.7 191.79 254.17 184.44 258.83C180.32 261.44 176.42 264.3 172.56 267.2C164.36 273.38 155.47 278.69 146.21 283.55C139 287.33 131.83 291.17 124.72 295.1C118.85 298.34 113.25 301.91 107.99 305.91C103.29 309.48 99.1702 313.5 95.6802 318.02C93.4102 320.97 91.1702 323.93 88.9402 326.91C88.3802 327.66 87.9202 328.47 87.3502 329.38C87.6902 329.36 87.8802 329.38 88.0402 329.33C90.7502 328.52 93.5802 328.27 96.4002 327.99C98.9102 327.73 101.42 327.4 103.92 327.08C108.74 326.48 113.48 325.58 118.12 324.3C122.91 322.98 127.45 321.15 131.82 319C138.86 315.54 146.12 312.53 153.63 309.95C163.38 306.6 172.5 302.1 181.53 297.47C186.7 294.82 191.54 291.78 196.14 288.42C203.26 283.21 210.38 278.01 217.17 272.46C219.33 270.7 221.4 268.85 223.47 266.99C228.44 262.53 233.37 258.03 238.33 253.57C244.71 247.83 251.12 242.12 257.5 236.39C259.08 234.97 260.61 233.5 262.19 232.07C263.07 231.27 263.99 230.5 264.91 229.73C265.13 229.55 265.41 229.43 265.67 229.29C265.59 229.2 265.51 229.12 265.43 229.03C263.75 229.12 262.14 229.48 260.52 229.86L260.54 229.85ZM204.17 195.91C194.92 204.57 184.68 212.28 174.29 219.83C167.18 225 160.04 230.14 153.1 235.48C144.57 242.04 136.48 249.01 129.72 257.07C124.3 263.53 119.37 270.29 114.73 277.21C113.01 279.78 111.28 282.36 109.62 284.96C104.86 292.45 99.1902 299.36 92.6402 305.7C85.9602 312.16 79.7402 318.94 74.3302 326.28C72.0702 329.35 69.9802 332.5 68.1702 335.79C67.5902 336.84 67.1402 337.96 66.6802 339.06C66.4202 339.67 66.2702 340.32 66.1902 341C66.3002 340.9 66.4202 340.81 66.5002 340.7C69.0702 337.23 72.5902 334.59 76.2502 332.08C79.1702 330.08 82.1802 328.17 85.0202 326.08C87.8802 323.97 90.5802 321.69 93.3302 319.47C93.6302 319.23 93.9102 318.95 94.1302 318.65C100.01 310.66 107.89 304.46 116.62 299C123.86 294.47 131.45 290.42 139.07 286.42C141.66 285.06 144.23 283.67 146.83 282.33C148.34 281.55 149.76 280.67 151.07 279.64C153.35 277.85 155.7 276.14 157.98 274.35C164.14 269.52 169.43 264.02 173.95 257.97C179.73 250.23 185.31 242.37 190.93 234.54C195.26 228.52 198.19 221.99 199.97 215.03C201.33 209.74 202.86 204.48 204.29 199.2C204.51 198.38 204.66 197.54 204.8 196.71C204.86 196.34 204.81 195.95 204.81 195.43C204.52 195.65 204.33 195.77 204.17 195.91ZM285.18 344.99C279.22 343.1 273.36 341.01 267.62 338.64C264.86 337.5 262.07 336.42 259.28 335.36C254.96 333.72 250.51 332.46 245.85 331.83C242.64 331.39 239.42 331.04 236.21 330.67C230.26 329.99 224.27 329.86 218.28 329.98C215.44 330.03 212.61 330.24 209.78 330.47C205.73 330.79 201.69 331.26 197.63 331.54C194.21 331.77 190.78 331.61 187.41 330.99C184.87 330.52 182.31 330.11 179.83 329.47C176.33 328.57 173.15 327 170.04 325.34C166.64 323.52 163.28 321.66 159.92 319.8C157.09 318.23 153.99 317.19 150.85 316.23C149.58 315.84 148.3 315.88 147.01 316.05C143.36 316.55 139.76 317.26 136.21 318.17C135.23 318.42 134.28 318.78 133.38 319.2C129.38 321.06 125.37 322.88 121.1 324.22C115.99 325.82 110.76 326.97 105.39 327.63C103.43 327.87 101.48 328.15 99.5102 328.54C100.03 328.64 100.55 328.75 101.08 328.84C108.43 330.16 115.62 331.99 122.7 334.15C134.63 337.8 146.78 340.79 159.07 343.34C163.97 344.35 168.93 345.06 173.92 345.65C181.2 346.5 188.51 346.81 195.84 346.84C202.97 346.87 210.09 346.84 217.22 346.92C222.01 346.98 226.8 347.26 231.59 347.36C237.17 347.48 242.76 347.59 248.34 347.54C251.41 347.51 254.48 347.14 257.55 346.93C261.61 346.66 265.67 346.29 269.74 346.16C275.32 345.99 280.9 346.02 286.48 345.96C286.72 345.96 286.95 345.96 287.19 345.96C287.22 345.88 287.24 345.8 287.27 345.72C286.58 345.48 285.9 345.22 285.21 345L285.18 344.99ZM155.57 315.91C160.23 317.14 164.49 319.13 168.56 321.43C171.07 322.85 173.53 324.33 176.02 325.76C178.78 327.34 181.63 328.79 184.81 329.62C189.25 330.78 193.78 331.2 198.4 330.76C201.66 330.45 204.92 330.12 208.19 329.86C210.57 329.67 212.97 329.55 215.36 329.44C217.24 329.35 219.12 329.25 221 329.28C224.63 329.35 228.25 329.45 231.87 329.67C234.56 329.83 237.23 330.2 239.91 330.48C240.21 330.51 240.51 330.51 240.85 330.36C239.52 330.11 238.2 329.8 236.86 329.63C231.59 328.94 226.31 328.24 221.02 327.63C217.6 327.23 214.15 326.99 210.72 326.66C201.85 325.8 193.19 324.18 184.77 321.52C180.2 320.08 175.58 318.77 170.92 317.57C166.15 316.34 161.24 315.68 156.26 315.61C155.89 315.61 155.52 315.61 155.15 315.61C155.15 315.66 155.13 315.71 155.12 315.76C155.27 315.81 155.42 315.86 155.57 315.9V315.91Z" fill="#B59F73"/>
<path d="M30.9901 386.98C30.9101 386.46 30.8201 385.93 30.7601 385.41C30.6801 384.63 30.6201 383.85 30.5501 383.06C30.1401 378.69 29.1301 374.41 28.1201 370.13C27.4401 367.27 26.3801 364.49 25.5101 361.67C24.3301 357.88 23.4501 354.03 23.3501 350.09C23.2801 347.19 23.2901 344.29 23.3501 341.39C23.4201 338.64 23.7301 335.91 24.2601 333.2C25.1001 328.94 26.4001 324.78 27.9601 320.69C29.9801 315.37 32.1101 310.08 34.1501 304.77C35.4801 301.31 36.5901 297.79 37.0801 294.15C37.5101 290.97 37.8401 287.79 38.3601 284.62C38.9901 280.8 39.8401 277 41.4001 273.37C43.0601 269.51 44.9001 265.7 46.6701 261.88C47.8201 259.4 48.9901 256.92 50.1601 254.44C50.2801 254.18 50.4901 253.94 50.7901 253.49C51.0301 254.02 51.2001 254.33 51.3001 254.66C51.9501 256.69 52.5601 258.73 53.2301 260.76C54.7001 265.19 55.5201 269.7 55.5601 274.32C55.5801 277.22 55.5601 280.12 55.1701 283C54.6901 286.54 54.2601 290.08 53.8601 293.62C53.4401 297.34 52.9901 301.07 52.7101 304.8C52.4401 308.42 52.4201 312.05 52.2101 315.67C52.0701 318.05 51.9001 320.44 51.5701 322.8C50.7301 328.88 48.9601 334.76 46.4201 340.46C44.4001 344.99 41.9201 349.33 39.4201 353.66C37.1301 357.61 34.9401 361.6 33.2201 365.78C31.1301 370.87 30.3001 376.05 31.2101 381.44C31.4601 382.93 31.4201 384.45 31.4801 385.96C31.4901 386.3 31.3801 386.65 31.3201 386.99C31.2101 386.99 31.0901 386.99 30.9801 386.99L30.9901 386.98ZM34.5601 360.83C36.4201 357.23 38.4801 353.72 40.4601 350.17C43.2101 345.24 45.8601 340.27 47.6801 334.99C49.3401 330.18 50.5201 325.29 51.0201 320.29C51.2601 317.85 51.3201 315.4 51.4601 312.96C51.6901 308.86 51.8101 304.75 52.1601 300.65C52.4701 297.07 53.0501 293.51 53.4601 289.94C53.9501 285.71 54.6601 281.49 54.7601 277.23C54.9001 271.3 54.0801 265.49 52.0101 259.83C51.5301 258.52 51.1301 257.18 50.6401 255.71C50.4701 255.92 50.3701 256.02 50.3101 256.13C47.5301 262.04 44.4401 267.83 42.0501 273.88C41.0601 276.39 40.2601 278.96 39.8701 281.59C39.6701 282.95 39.6501 284.37 39.8301 285.74C40.2301 288.7 40.8601 291.64 41.3001 294.59C41.9001 298.65 41.8701 302.69 41.2401 306.77C40.3401 312.57 37.9401 317.76 34.0101 322.43C33.5401 322.99 33.1001 323.57 32.6201 324.12C29.2301 328.03 26.9101 332.41 25.4401 337.14C24.5501 340 24.1101 342.9 24.0501 345.89C23.9301 352.43 25.2401 358.74 27.4201 364.95C28.4101 367.78 29.2201 370.64 29.6701 373.58C29.7101 373.87 29.8301 374.16 29.9101 374.45C30.6301 369.64 32.3101 365.15 34.5501 360.83H34.5601ZM25.8701 333.72C27.0701 330.5 28.7601 327.47 30.6301 324.51C32.7001 321.24 34.8201 318 36.8401 314.71C38.7401 311.61 40.1101 308.33 40.6801 304.83C41.0701 302.46 41.0601 300.08 40.8901 297.69C40.6601 294.49 39.9001 291.36 39.4001 288.2C39.2901 287.49 39.2301 286.77 38.9501 286.05C38.8001 287.13 38.6301 288.2 38.4901 289.28C38.1701 291.65 37.9401 294.02 37.5301 296.38C36.9701 299.64 35.8201 302.77 34.6301 305.89C32.3401 311.86 30.0201 317.82 27.7701 323.8C26.3801 327.5 25.4401 331.3 24.7701 335.15C24.6501 335.86 24.5901 336.57 24.5101 337.29C24.5601 337.29 24.6101 337.3 24.6501 337.31C25.0501 336.11 25.4301 334.91 25.8701 333.72Z" fill="#B59F73"/>
<path d="M212.51 389.21C209.81 389.35 207.1 389.45 204.4 389.44C200.7 389.43 197 389.41 193.31 389.19C190.04 388.99 186.78 388.57 183.54 388.15C180.12 387.7 176.7 387.25 173.33 386.61C165.41 385.12 157.94 382.49 150.92 378.96C145.75 376.36 140.76 373.46 135.79 370.57C131.36 368 126.77 365.8 121.69 364.38C114.61 362.39 107.89 359.67 101.63 356.15C96.4801 353.25 91.1301 350.71 85.6801 348.3C83.3501 347.27 80.8602 346.76 78.3002 346.52C75.7102 346.28 73.1101 346.28 70.5201 346.64C68.4101 346.94 66.3501 347.33 64.5601 348.44C64.4001 348.54 64.1601 348.56 63.9001 348.63C63.8501 348.04 64.2901 347.85 64.6301 347.65C66.0101 346.81 67.6001 346.44 69.2101 346.14C72.5001 345.54 75.8201 345.69 79.1401 345.8C79.9201 345.83 80.7002 345.83 81.4802 345.89C83.9002 346.09 86.3202 346.31 88.7302 346.51C91.1502 346.71 93.5801 346.86 95.9901 347.11C99.8001 347.51 103.55 348.25 107.23 349.16C114.04 350.85 120.84 352.59 127.62 354.38C136.56 356.75 145.68 358.27 154.98 359C158.59 359.28 162.21 359.61 165.77 360.15C175.85 361.68 185.1 365.01 193.19 370.61C197.45 373.56 201.54 376.68 205.75 379.68C209.92 382.66 213.88 385.91 218.89 387.84C218.98 387.88 219.1 387.91 219.15 387.98C219.27 388.14 219.36 388.32 219.54 388.63C217.05 388.84 214.78 389.09 212.5 389.21H212.51ZM86.1201 347.68C91.6501 350.08 97.0502 352.68 102.26 355.6C108.41 359.05 115 361.72 121.94 363.67C127.25 365.16 132.04 367.47 136.65 370.18C141.09 372.79 145.58 375.36 150.18 377.74C157.48 381.52 165.26 384.32 173.55 385.9C176.92 386.54 180.34 387.01 183.75 387.45C187 387.87 190.25 388.27 193.52 388.49C196.79 388.7 200.09 388.7 203.37 388.75C207.34 388.8 211.31 388.66 215.26 388.25C216.1 388.16 216.95 388.18 217.94 388.15C217.71 387.99 217.62 387.9 217.51 387.86C214.75 386.93 212.41 385.39 210.15 383.77C205.47 380.42 200.87 376.98 196.19 373.63C192.33 370.86 188.34 368.26 183.89 366.26C177.84 363.54 171.47 361.64 164.75 360.79C160.52 360.26 156.26 359.88 152.01 359.5C144.33 358.81 136.79 357.54 129.38 355.64C122.09 353.77 114.82 351.87 107.51 350.04C103.43 349.02 99.2901 348.19 95.0601 347.79C92.4101 347.54 89.7401 347.38 87.0801 347.18C86.3801 347.13 85.6801 347.08 84.9701 347.02C84.9501 347.07 84.9401 347.12 84.9201 347.16C85.3101 347.33 85.6901 347.51 86.0801 347.68H86.1201Z" fill="#B59F73"/>
<path d="M24.76 394.4C25.08 394.27 25.39 394.12 25.72 394.02C27.75 393.39 29.77 392.72 31.83 392.17C37.66 390.61 43.4 388.84 49.05 386.83C54.16 385.01 59.24 383.13 64.39 381.41C71.19 379.14 78.16 377.45 85.49 377.06C90.38 376.8 95.2 377.16 99.99 377.96C105.71 378.92 111.09 380.74 116.39 382.81C120.49 384.41 124.62 385.94 128.77 387.43C131.88 388.55 134.98 389.68 137.91 391.13C142.63 393.46 147.33 395.83 152.02 398.2C152.73 398.56 153.37 399.02 154.02 399.46C154.36 399.69 154.59 399.99 154.25 400.54C153.53 400.56 152.72 400.63 151.91 400.6C148.28 400.46 144.66 400.3 141.04 400.12C138.58 400 136.11 399.94 133.66 399.7C129.41 399.28 125.18 398.76 120.95 398.23C117.14 397.75 113.33 397.51 109.49 397.64C106.89 397.73 104.29 397.86 101.69 397.91C97.24 397.99 92.79 398.1 88.35 397.61C84.65 397.2 80.97 396.72 77.36 395.85C72.58 394.7 67.8 393.52 63 392.44C59.15 391.57 55.24 390.95 51.27 390.73C46.01 390.44 40.81 390.82 35.71 392.08C32.42 392.9 29.14 393.73 25.85 394.54C25.53 394.62 25.2 394.64 24.87 394.69C24.83 394.6 24.8 394.5 24.76 394.41V394.4ZM46.04 389.94C48.3 389.94 50.57 389.92 52.81 390.11C60.58 390.78 68.05 392.64 75.49 394.62C79.83 395.77 84.26 396.48 88.76 396.92C93.27 397.37 97.78 397.29 102.3 397.14C106.41 397 110.52 396.9 114.63 396.94C116.84 396.96 119.06 397.27 121.26 397.52C125.6 398 129.93 398.58 134.28 399.01C136.83 399.26 139.4 399.3 141.97 399.43C145.35 399.6 148.74 399.77 152.12 399.93C152.46 399.95 152.8 399.93 153.41 399.93C153.02 399.63 152.81 399.43 152.55 399.29C151.79 398.88 151.02 398.49 150.24 398.11C146.6 396.3 142.94 394.53 139.33 392.68C135.65 390.79 131.77 389.3 127.83 387.9C123.74 386.45 119.69 384.9 115.65 383.33C110.47 381.31 105.21 379.55 99.62 378.64C95.3 377.93 90.96 377.58 86.55 377.73C79.14 377.99 72.09 379.64 65.2 381.9C59.66 383.72 54.2 385.75 48.69 387.67C46.75 388.35 44.79 388.97 42.84 389.62C42.5 389.73 42.16 389.87 41.82 389.99C41.83 390.05 41.85 390.11 41.86 390.16C43.25 390.08 44.65 389.93 46.04 389.93V389.94Z" fill="#B59F73"/>
</g>
<defs>
<clipPath id="clip0_7_350">
<rect width="329.92" height="455.58" fill="white"/>
</clipPath>
</defs>
</svg>
