<svg width="620" height="345" viewBox="0 0 620 345" fill="none" xmlns="http://www.w3.org/2000/svg">
<path d="M619.34 0C619.34 1.22 619.33 2.44 619.33 3.65C619.33 116.11 619.33 228.57 619.33 341.03C619.33 342.23 619.3 343.44 619.28 344.62C618.59 345.03 618.03 344.81 617.47 344.68C612.78 343.6 608.32 341.63 604.16 338.72C588.77 327.93 577.77 312.48 572.33 291.24C570.81 285.29 569.45 279.28 568.04 273.29C566.64 267.36 564.91 261.6 562.64 256.1C560.72 251.47 558.47 247.13 555.72 243.19C554.74 241.78 553.78 240.35 552.83 238.91C550.08 234.73 548.47 229.93 547.8 224.6C546.84 217.02 546.84 209.4 547.24 201.77C547.64 194.23 548.39 186.74 549.36 179.29C550.15 173.21 551.07 167.15 551.85 161.06C552.72 154.25 553.6 147.44 554.28 140.6C554.7 136.33 554.64 132.01 554.04 127.74C553.31 122.6 551.67 117.99 549.1 113.88C546.48 109.69 543.41 106.1 539.85 103.19C537.63 101.37 535.32 99.7 533.04 98C530.81 96.34 528.54 94.78 526.32 93.09C520.57 88.7 515.57 83.21 511.22 76.77C503.1 64.73 497.54 51.01 494.12 35.89C492.53 28.85 491.41 21.69 490.58 14.46C490.03 9.64 489.52 4.82 489 0H619.35H619.34Z" fill="#026351"/>
<path d="M536.23 0.186413C535.94 0.546413 535.67 0.896413 535.39 1.22641C529.35 8.32641 521.82 13.3364 513.27 16.8964C506.42 19.7564 499.3 21.6064 491.93 22.5164C486.9 23.1364 481.87 23.1564 476.83 22.7664C470.15 22.2464 463.55 21.1364 456.93 20.1264C450.47 19.1464 444.01 18.2064 437.54 17.3364C429.53 16.2664 421.48 15.7164 413.4 15.7964C406.49 15.8664 399.62 16.4464 392.77 17.3164C384 18.4364 375.33 20.0664 366.69 21.8564C361.71 22.8864 356.71 23.7964 351.63 24.0964C346.19 24.4064 340.83 23.8164 335.54 22.5764C326.54 20.4664 318.04 16.9664 309.7 13.0564C301.72 9.31641 294.12 4.89641 286.52 0.456412C286.36 0.356412 286.21 0.236412 286 0.0864124C286.95 -0.163588 287.66 0.166413 288.38 0.596413C295.73 4.89641 303.13 9.11641 310.86 12.7064C318.37 16.1964 326.02 19.2964 334.06 21.3964C340.13 22.9864 346.28 23.6264 352.53 23.2264C357 22.9364 361.41 22.1264 365.79 21.2164C373.45 19.6264 381.12 18.1264 388.87 17.0064C399.27 15.5064 409.73 14.6764 420.24 15.0664C424.23 15.2164 428.22 15.5364 432.19 15.9464C437.04 16.4464 441.88 17.0564 446.72 17.7164C451.03 18.3064 455.32 19.0764 459.63 19.7064C464.14 20.3664 468.64 21.0664 473.17 21.5564C476.69 21.9364 480.25 22.2864 483.79 22.2264C497.54 21.9864 510.41 18.4964 522.24 11.3864C526.99 8.53641 531.1 4.92641 534.73 0.746412C535.11 0.306412 535.45 -0.263587 536.26 0.176413L536.23 0.186413Z" fill="#B59F73"/>
<path d="M0 42.59C1.66 42.12 3.33 41.65 4.99 41.17C10.84 39.47 16.75 38.01 22.78 37.14C29.51 36.17 36.26 35.86 43.06 36.23C54.1 36.82 64.75 39.32 75.28 42.48C83.35 44.9 91.4 47.4 99.62 49.29C105.95 50.74 112.32 51.99 118.76 52.82C123.16 53.39 127.55 54.02 131.97 54.42C137.11 54.89 142.27 55.2 147.43 55.46C154.57 55.82 161.71 56.07 168.85 56.37C173.25 56.55 177.64 56.7 182.04 56.95C186.03 57.18 190.01 57.5 193.99 57.84C197.45 58.13 200.9 58.49 204.35 58.84C223.32 60.76 241.46 65.49 258.39 74.5C267.33 79.26 276.34 83.89 285.34 88.54C293.38 92.69 301.62 96.4 310.3 99.04C319.37 101.8 328.65 103.13 338.13 102.68C355.99 101.85 372.08 96.13 386.21 85.09C393.21 79.62 398.38 72.66 402.49 64.86C406.09 58.02 408.61 50.81 409.73 43.16C410.5 37.92 410.7 32.65 410.37 27.34C409.8 18.21 407.87 9.39 404.72 0.81C404.64 0.59 404.58 0.350001 404.51 0.110001C404.66 0.0700006 404.77 0.01 404.88 0C404.99 0 405.11 0.0299999 405.39 0.0799999C406.17 2.51 407.03 4.98 407.76 7.49C409.43 13.24 410.47 19.1 411.01 25.06C412.73 44.06 407.73 61.1 396.16 76.22C391.23 82.67 384.98 87.6 378.04 91.71C368.77 97.19 358.84 100.85 348.17 102.46C343.85 103.11 339.52 103.53 335.16 103.56C325.05 103.63 315.27 101.74 305.75 98.41C297.34 95.47 289.37 91.58 281.48 87.5C272.59 82.9 263.75 78.21 254.82 73.69C246.05 69.24 236.9 65.77 227.3 63.53C221.8 62.24 216.26 61.16 210.66 60.47C205.18 59.8 199.69 59.15 194.19 58.62C190.26 58.24 186.3 58.02 182.35 57.81C176.14 57.48 169.93 57.21 163.72 56.94C160.61 56.8 157.51 56.75 154.4 56.61C150.17 56.42 145.93 56.21 141.7 55.94C138.16 55.72 134.61 55.47 131.08 55.13C127.59 54.79 124.09 54.43 120.63 53.9C115.21 53.07 109.8 52.17 104.42 51.13C96.02 49.5 87.8 47.13 79.63 44.63C72.73 42.52 65.81 40.47 58.72 39.06C54.29 38.18 49.82 37.54 45.31 37.17C40.47 36.77 35.63 36.73 30.79 37.05C23.53 37.53 16.39 38.84 9.37 40.75C6.69 41.48 4.02 42.28 1.35 43.06C0.89 43.19 0.45 43.4 0 43.57V42.6L0 42.59Z" fill="#B59F73"/>
<path d="M365.06 266.661C364.89 267.011 364.72 267.371 364.55 267.721C365.25 267.501 365.65 266.961 366.11 266.481C367.57 264.941 368.97 263.341 370.5 261.861C377.24 255.321 384.76 249.781 392.68 244.781C396.91 242.111 401.19 239.531 405.38 236.811C413.03 231.841 420.13 226.141 427.06 220.211C431.87 216.091 436.75 212.051 441.66 208.051C445.55 204.881 449.9 202.401 454.32 200.051C460.69 196.661 467.11 193.341 473.49 189.961C479.7 186.661 485.62 182.881 490.99 178.321C495.75 174.291 500.32 170.041 504.2 165.131C504.28 165.031 504.38 164.961 504.54 164.921C500.32 172.531 495.02 179.311 488.76 185.351C482.46 191.431 475 195.781 467.3 199.791C468.05 199.421 468.8 199.051 469.55 198.691C471 198.011 472.48 197.361 473.92 196.651C475.21 196.021 476.49 195.371 477.72 194.631C486.97 189.101 494.29 181.551 500.45 172.801C504.14 167.561 507.25 161.971 509.97 156.161C510.69 154.621 511.62 153.171 512.54 151.521C512.21 151.821 511.99 152.021 511.74 152.251C511.49 151.711 512.27 151.251 511.82 150.741L511.85 150.711C511.23 152.071 510.72 153.501 509.96 154.781C508.44 157.341 506.82 159.841 505.18 162.321C504.33 163.601 503.4 164.831 502.42 166.021C499.16 169.971 495.38 173.411 491.55 176.781C485.97 181.691 479.75 185.691 473.21 189.181C467.87 192.031 462.46 194.771 457.11 197.601C452.63 199.971 448.09 202.261 444.02 205.291C440.04 208.251 436.19 211.391 432.36 214.551C427.63 218.451 423.03 222.511 418.29 226.391C411.44 231.991 404.05 236.841 396.5 241.441C389.98 245.421 383.58 249.591 377.69 254.491C373.42 258.041 369.26 261.711 365.75 266.051C365.61 266.231 365.39 266.341 365.2 266.481C365.16 266.531 365.13 266.581 365.09 266.641L365.06 266.661Z" fill="#B59F73"/>
<path d="M579.86 70.8608C579.92 71.0408 580.01 71.2208 580.04 71.4108C580.38 73.5508 581.13 75.5508 581.88 77.5808C584.03 83.3608 586.36 89.0408 589.14 94.5508C591.11 98.4608 592.9 102.461 594.72 106.441C597.8 113.151 599.41 120.261 600.37 127.541C600.78 130.661 601.27 133.761 602.18 136.771C603.33 140.531 604.59 144.251 605.87 147.961C608.3 154.981 609.41 162.211 609.43 169.621C609.43 172.391 609.39 175.171 609.21 177.931C609.02 180.721 608.78 183.531 608.3 186.291C607.6 190.291 606.65 194.241 605.84 198.221C605.15 201.561 604.5 204.911 603.84 208.261C603.64 209.291 603.47 210.331 603.29 211.361C603.2 211.361 603.1 211.351 603.01 211.341C603.01 210.921 603.01 210.491 603.01 210.071C603.02 209.281 603.1 208.491 603.05 207.711C602.89 205.251 602.62 202.811 602.51 200.351C602.41 198.261 602.41 196.171 602.49 194.081C602.65 189.701 602.97 185.331 603.07 180.961C603.19 175.421 603.27 169.871 602.74 164.341C602.4 160.831 601.9 157.351 601.17 153.911C599.4 145.611 597.05 137.471 594 129.541C591.16 122.171 588.45 114.751 586.19 107.181C584.55 101.671 583.34 96.0608 582.37 90.4008C581.8 87.0308 581.37 83.6408 580.88 80.2708C580.62 78.4508 580.35 76.6208 580.11 74.7908C579.94 73.5108 579.8 72.2208 579.65 70.9408C579.72 70.9208 579.78 70.9008 579.85 70.8808L579.86 70.8608ZM606.01 194.591C606.96 190.491 607.61 186.351 608.11 182.171C608.73 176.991 608.84 171.791 608.63 166.591C608.35 159.791 607.06 153.161 604.85 146.721C603.76 143.521 602.67 140.321 601.73 137.071C600.77 133.761 600.24 130.351 599.8 126.931C599.19 122.281 598.14 117.741 596.69 113.271C595.51 109.651 593.91 106.211 592.31 102.771C590.33 98.5208 588.17 94.3608 586.26 90.0808C584.69 86.5608 583.38 82.9108 581.96 79.3208C581.8 78.9208 581.65 78.5308 581.49 78.1308C581.42 78.1508 581.34 78.1708 581.27 78.1908C581.36 78.9608 581.43 79.7408 581.53 80.5108C583.4 95.0508 587 109.151 592.28 122.821C594.24 127.891 596.13 132.991 597.81 138.161C599.39 143.031 600.79 147.971 601.76 153.011C602.44 156.571 603 160.141 603.34 163.751C603.85 169.081 603.76 174.421 603.67 179.761C603.59 184.381 603.22 188.991 603.17 193.611C603.12 197.501 603.34 201.401 603.43 205.301C603.51 205.301 603.59 205.301 603.67 205.291C604.45 201.731 605.2 198.151 606.02 194.601L606.01 194.591Z" fill="#B59F73"/>
<path d="M365.06 266.661C365.09 266.611 365.13 266.551 365.17 266.501C365.33 266.201 365.46 265.881 365.64 265.591C367.87 261.901 370.09 258.201 372.36 254.531C373.62 252.491 374.9 250.461 376.3 248.521C381.87 240.731 388.67 234.141 396.43 228.581C408.35 220.031 419.88 211.001 430.86 201.271C436.99 195.831 443.5 190.881 450.34 186.351C457.24 181.781 464.63 178.151 472.35 175.161C479.02 172.581 485.56 169.671 491.77 166.081C498.74 162.061 505.26 157.441 510.86 151.611C511.17 151.291 511.52 151.021 511.85 150.721L511.82 150.751C511.97 150.531 512.13 150.311 512.36 149.971C511.67 150.081 511.24 150.451 510.83 150.821C509.63 151.891 508.45 152.991 507.25 154.061C499.86 160.611 491.58 165.791 482.61 169.871C478.69 171.651 474.73 173.391 470.72 174.951C461.28 178.631 452.56 183.571 444.36 189.491C438.1 194.011 432.19 198.941 426.41 204.051C417.37 212.051 407.94 219.551 398.08 226.521C393.37 229.851 388.87 233.411 384.75 237.461C380.01 242.121 375.85 247.231 372.42 252.931C369.77 257.331 367.19 261.771 364.59 266.191C364.46 266.411 364.38 266.651 364.41 267.001C364.63 266.891 364.85 266.771 365.07 266.661H365.06Z" fill="#B59F73"/>
<path d="M591.43 174.901C591.3 174.121 591.22 173.321 591.04 172.551C590.49 170.191 589.84 167.851 589.33 165.481C588.75 162.781 588.26 160.051 587.74 157.341C586.8 152.361 585.35 147.521 583.86 142.691C582.16 137.171 580.47 131.651 579.37 125.971C578.87 123.391 578.51 120.781 578.21 118.181C577.63 113.131 577.72 108.061 577.83 103.001C577.88 100.891 578.18 98.7808 578.35 96.6708C578.46 95.3408 578.53 94.0108 578.62 92.6808C578.67 91.9208 578.72 91.1508 578.77 90.3908L578.51 90.3608C578.36 91.5508 578.18 92.7408 578.05 93.9308C577.85 95.7308 577.66 97.5308 577.48 99.3308C577.39 100.211 577.31 101.101 577.25 101.991C576.96 106.341 577.08 110.691 577.27 115.031C577.6 122.251 579.21 129.231 581.24 136.131C582.72 141.141 584.31 146.131 585.64 151.181C586.57 154.711 587.22 158.311 587.86 161.901C588.4 164.941 589.19 167.901 590.02 170.861C590.35 172.041 590.66 173.231 590.99 174.421C591.04 174.611 591.14 174.781 591.22 174.961C591.29 174.951 591.35 174.931 591.42 174.921L591.43 174.901Z" fill="#B59F73"/>
<path d="M612.98 185.741C613.24 184.201 613.54 182.661 613.75 181.111C614.05 178.951 614.3 176.781 614.53 174.601C614.71 172.871 614.88 171.131 614.96 169.391C615.14 165.561 615.17 161.731 614.84 157.901C614.27 151.271 613.01 144.781 611.09 138.411C610.3 135.791 609.37 133.211 608.14 130.761C607.84 130.161 607.45 129.611 607.11 129.041C607.04 129.071 606.96 129.111 606.89 129.141C606.94 129.341 606.96 129.551 607.04 129.731C610.08 136.081 611.78 142.821 613.02 149.701C613.99 155.071 614.53 160.481 614.39 165.931C614.32 168.731 614.04 171.531 613.85 174.331C613.7 176.551 613.58 178.771 613.39 180.981C613.28 182.301 613.06 183.621 612.9 184.941C612.87 185.201 612.84 185.461 612.81 185.721C612.87 185.721 612.93 185.741 612.98 185.751V185.741Z" fill="#B59F73"/>
<path d="M517.13 143.651C517.03 143.821 516.91 143.991 516.82 144.171C515.13 147.231 513.25 150.191 511.81 153.361C509.79 157.811 507.99 162.371 506.28 166.951C502.58 176.871 496.83 185.371 488.96 192.441C485.49 195.561 481.75 198.341 477.79 200.821C471.22 204.931 464.88 209.351 458.91 214.311C455.38 217.241 451.77 220.091 448.13 222.881C440.93 228.401 433.06 232.851 425.14 237.231C417.83 241.271 410.21 244.711 402.62 248.191C392.41 252.881 382.33 257.821 372.59 263.431C370.22 264.801 367.84 266.171 365.46 267.521C365.13 267.711 364.76 267.801 364.2 268.021C364.28 267.391 364.29 266.991 364.39 266.611C364.49 266.211 364.67 265.841 364.79 265.451C367.3 257.021 371.12 249.211 375.95 241.871C380.25 235.341 385.24 229.411 391.17 224.291C394.99 220.991 399.1 218.091 403.31 215.321C408.95 211.601 414.32 207.521 419.47 203.151C423.38 199.821 427.35 196.551 431.39 193.371C438.8 187.531 446.59 182.251 454.95 177.851C461.07 174.631 467.4 171.831 473.73 169.071C482.58 165.211 491.44 161.391 500.04 157.001C504.44 154.751 508.74 152.341 512.59 149.221C513.11 148.801 513.57 148.271 513.96 147.731C514.65 146.751 515.25 145.711 515.92 144.721C516.22 144.281 516.6 143.911 516.95 143.501C517.01 143.561 517.07 143.621 517.14 143.681L517.13 143.651ZM366.08 266.231C372.28 262.441 378.63 258.931 385.1 255.641C391.18 252.551 397.11 249.221 402.82 245.491C408.17 241.991 413.02 237.851 417.44 233.241C421.52 228.981 425.69 224.821 430.12 220.941C432.47 218.891 434.72 216.731 437.14 214.771C445.08 208.331 453.73 203.181 463.57 200.141C468.21 198.711 472.86 197.281 477.4 195.581C482.76 193.571 487.95 191.161 492.4 187.441C493.31 186.681 494.18 185.831 494.96 184.931C499.74 179.351 503.14 172.981 505.7 166.121C507.46 161.411 509.2 156.691 511.48 152.191C511.8 151.561 512.13 150.941 512.31 150.231C512.18 150.321 512.03 150.391 511.91 150.491C509.06 152.881 505.87 154.741 502.62 156.521C495.34 160.491 487.74 163.791 480.19 167.181C473.95 169.991 467.66 172.691 461.45 175.561C450.79 180.481 441.03 186.861 431.83 194.111C427.88 197.231 423.99 200.431 420.16 203.691C414.99 208.091 409.6 212.201 403.93 215.931C399.67 218.741 395.49 221.671 391.63 225.021C385.85 230.041 380.98 235.851 376.75 242.221C372.51 248.611 369.1 255.421 366.55 262.651C366.11 263.901 365.75 265.171 365.3 266.621C365.7 266.431 365.91 266.351 366.1 266.241L366.08 266.231ZM400.91 248.011C409.05 244.241 417.25 240.601 425.11 236.271C432.16 232.391 439.18 228.441 445.67 223.661C449.5 220.841 453.25 217.901 456.91 214.851C463.37 209.471 470.18 204.591 477.28 200.101C480.28 198.201 483.07 195.961 485.95 193.861C486.16 193.701 486.35 193.511 486.47 193.221C486.36 193.271 486.24 193.311 486.14 193.371C480.93 196.671 475.26 198.941 469.51 201.091C455.56 206.311 442.66 213.441 430.91 222.621C426.45 226.101 422.38 230.031 418.25 233.901C414.2 237.701 410.07 241.411 405.51 244.591C404.02 245.631 402.47 246.571 400.95 247.561C400.72 247.711 400.5 247.861 400.28 248.011C400.3 248.071 400.33 248.121 400.35 248.181C400.53 248.121 400.73 248.081 400.9 248.001L400.91 248.011Z" fill="#B59F73"/>
<path d="M338.78 175.091C342.23 172.271 345.62 169.381 349.15 166.681C354.05 162.921 359.38 159.811 364.8 156.871C374.63 151.551 384.74 146.861 395.33 143.261C403.62 140.441 411.95 137.751 420.26 135.001C433.38 130.661 446.54 126.471 460.12 123.751C465.49 122.671 470.88 121.741 476.32 121.161C479.08 120.871 481.83 120.561 484.59 120.301C487.62 120.021 490.66 119.761 493.69 119.541C496.18 119.351 498.68 119.251 501.17 119.071C504.45 118.841 507.73 118.631 510.99 118.301C513.95 118.001 516.89 117.581 519.83 117.151C521.17 116.951 522.49 116.591 523.82 116.291C523.97 116.491 524.11 116.661 524.28 116.891C523.91 117.111 523.59 117.301 523.27 117.491C520.92 118.891 518.52 120.221 516.23 121.721C509.81 125.911 504.31 131.151 499.24 136.851C494.86 141.771 490.21 146.401 485.16 150.631C477.47 157.081 468.94 161.901 459.27 164.651C454.63 165.971 449.97 167.241 445.2 167.931C441.07 168.531 436.91 168.891 432.77 169.441C428.8 169.961 424.84 170.541 420.9 171.181C415.8 172.011 410.73 172.951 405.64 173.791C400.8 174.591 395.93 175.021 391.02 174.981C387.9 174.961 384.79 174.871 381.67 174.811C376.36 174.701 371.05 174.551 365.75 174.491C362.98 174.461 360.2 174.531 357.43 174.661C354.73 174.781 352.03 175.001 349.34 175.211C347.4 175.361 345.46 175.561 343.51 175.751C342.08 175.891 340.66 176.081 339.23 176.211C338.9 176.241 338.55 176.101 338 176.001C338.35 175.571 338.53 175.281 338.78 175.081V175.091ZM355.08 173.981C360.11 173.651 365.13 173.521 370.17 173.741C374.27 173.921 378.39 173.931 382.5 174.011C385.58 174.071 388.66 174.191 391.75 174.161C396.2 174.111 400.64 173.771 405.04 173.031C410.64 172.091 416.22 171.071 421.82 170.171C425.94 169.511 430.08 168.991 434.21 168.441C438.45 167.881 442.73 167.561 446.92 166.771C456.23 165.021 465.31 162.491 473.62 157.721C477.86 155.291 481.71 152.341 485.47 149.241C490.32 145.241 494.64 140.711 498.84 136.041C503.84 130.471 509.24 125.321 515.57 121.231C517.26 120.141 519.05 119.181 520.79 118.161C521.11 117.971 521.44 117.811 521.72 117.471C521.01 117.601 520.31 117.711 519.6 117.851C515.06 118.721 510.48 119.221 505.86 119.501C501.73 119.751 497.59 119.981 493.46 120.341C487.77 120.831 482.08 121.351 476.4 121.981C465.8 123.151 455.42 125.441 445.14 128.211C434.37 131.111 423.83 134.741 413.25 138.261C407.41 140.201 401.53 142.031 395.7 144.021C384.85 147.721 374.5 152.541 364.45 158.021C357.82 161.631 351.47 165.671 345.61 170.441C343.86 171.871 342.14 173.341 340.41 174.791C340.25 174.921 340.06 175.001 339.88 175.101C339.95 175.181 340.02 175.271 340.09 175.351C345.06 174.541 350.09 174.301 355.1 173.961L355.08 173.981Z" fill="#B59F73"/>
<path d="M601.15 206.921C599.85 203.321 598.35 199.781 597.19 196.131C595.46 190.691 593.95 185.181 592.33 179.711C589.16 168.981 585.66 158.361 581.64 147.921C578.89 140.791 576.46 133.571 575.47 125.951C574.96 122.011 574.61 118.051 574.82 114.071C574.91 112.401 575 110.721 575.16 109.051C575.42 106.261 575.62 103.451 576.06 100.691C576.88 95.5908 577.89 90.5308 578.29 85.3708C578.55 82.0708 578.97 78.7808 579.32 75.4808C579.35 75.2408 579.43 75.0108 579.49 74.7708C579.59 76.2708 579.68 77.7408 579.58 79.2108C579.39 81.9008 579.14 84.5908 578.82 87.2708C578.42 90.5908 577.94 93.9108 577.47 97.2208C577.11 99.7608 576.65 102.281 576.33 104.831C576.1 106.661 576.06 108.521 575.88 110.351C575.35 115.831 575.59 121.291 576.4 126.731C577.08 131.341 578.21 135.861 579.75 140.251C581.39 144.931 583.22 149.541 584.88 154.211C587.93 162.781 590.78 171.421 593.33 180.161C595.03 186.001 596.72 191.851 598.59 197.641C599.95 201.831 601.59 205.931 603.12 210.071C603.13 210.101 603.22 210.111 603.29 210.141C603.35 210.061 603.43 210.001 603.47 209.911C605.04 206.011 606.51 202.061 608.19 198.211C610.3 193.391 611.86 188.431 612.65 183.221C613.27 179.161 614.13 175.151 615.49 171.261C617.17 166.431 617.87 161.431 618.08 156.351C618.21 153.121 617.97 149.921 617.46 146.731C617.09 144.431 616.51 142.191 615.24 140.171C613.76 137.821 612.25 135.481 610.36 133.441C608.29 131.201 606.12 129.061 604 126.871C602.39 125.211 600.91 123.451 600.01 121.311C598.92 118.731 597.86 116.131 596.98 113.471C595.88 110.161 595.81 106.671 595.75 103.221C595.72 101.191 595.49 99.2008 595.08 97.2208C594.63 95.0708 593.87 93.1108 592.24 91.5308C591.11 90.4308 590.1 89.2108 589.03 88.0608C586.97 85.8508 585.18 83.4308 583.56 80.8808C581.33 77.3708 580.14 73.5208 579.71 69.4208C579.67 69.0508 579.71 68.6708 579.72 68.3008C579.79 68.3008 579.87 68.3008 579.95 68.3008C580.05 68.7908 580.16 69.2808 580.24 69.7808C580.92 73.5508 582.05 77.1608 584.21 80.3708C585.49 82.2708 586.81 84.1508 588.27 85.9208C589.95 87.9508 591.8 89.8408 593.57 91.8008C597.21 95.8308 600.11 100.321 602.16 105.351C603.49 108.631 604.23 112.081 604.91 115.541C605.54 118.771 606.7 121.731 608.52 124.511C610.52 127.571 612.29 130.791 613.98 134.041C617.44 140.661 619.1 147.721 618.89 155.201C618.85 156.501 618.77 157.801 618.71 159.101C618.55 162.531 618.06 165.931 616.99 169.191C615.23 174.571 613.98 180.061 613.05 185.631C612.46 189.181 611.45 192.611 610.05 195.941C607.93 200.981 605.94 206.081 603.89 211.161C603.78 211.441 603.69 211.751 603.52 212.001C603.39 212.191 603.16 212.311 602.96 212.471C602.31 210.481 601.77 208.681 601.13 206.921H601.15ZM613.33 134.531C611.62 131.451 610.03 128.281 608.08 125.361C605.93 122.151 604.62 118.711 603.96 114.961C602.95 109.241 601.07 103.851 597.95 98.9208C597.76 98.6108 597.55 98.3208 597.34 98.0208C597.27 98.0508 597.21 98.0708 597.14 98.1008C597.22 98.7908 597.31 99.4908 597.37 100.181C597.57 102.461 597.78 104.741 597.94 107.031C598.17 110.241 598.38 113.441 599.17 116.581C600.01 119.931 601.52 122.931 603.88 125.461C605 126.661 606.16 127.831 607.33 128.981C609.82 131.441 612.16 134.021 614.09 136.971C614.2 137.141 614.34 137.281 614.47 137.441C614.53 137.391 614.58 137.351 614.64 137.301C614.21 136.371 613.83 135.411 613.34 134.521L613.33 134.531Z" fill="#B59F73"/>
<path d="M509.17 307.251C508.23 305.601 507.16 304.011 506.37 302.291C503.88 296.861 502.06 291.211 500.89 285.341C499.7 279.361 499.45 273.331 499.79 267.251C500.03 263.041 499.91 258.831 499.52 254.631C498.81 246.951 498.56 239.251 498.99 231.541C499.19 228.051 499.38 224.571 499.72 221.091C500.26 215.461 501.48 209.951 503.08 204.521C504.37 200.161 505.75 195.831 507.06 191.471C508.27 187.431 509.09 183.301 509.54 179.111C510.69 168.421 513.59 158.191 517.47 148.201C519.2 143.741 520.76 139.201 522.86 134.891C522.97 134.661 523.02 134.411 523.09 134.161C523.03 134.131 522.97 134.101 522.9 134.071C522.54 134.631 522.13 135.171 521.84 135.771C520.91 137.751 519.97 139.731 519.15 141.761C516.38 148.611 513.83 155.541 511.75 162.641C510.62 166.491 509.89 170.431 509.41 174.401C508.39 182.961 506.51 191.301 503.72 199.461C501.92 204.741 500.47 210.131 499.6 215.651C499.07 219.031 498.67 222.441 498.47 225.841C498.16 231.031 497.97 236.241 497.93 241.441C497.9 244.651 498.23 247.871 498.4 251.081C498.62 255.251 498.92 259.421 499.05 263.591C499.12 265.911 498.93 268.241 498.85 270.571C498.47 280.451 500.49 289.881 504.07 299.031C505.12 301.721 506.34 304.311 507.94 306.721C508.3 307.261 508.59 307.851 508.9 308.421C509.09 308.771 509.27 309.091 509.9 308.941C510.03 308.391 510.21 307.781 510.3 307.151C511.89 296.041 514.9 285.271 518.46 274.661C520.55 268.431 522.86 262.291 525.04 256.091C527.34 249.551 529 242.861 529.91 235.991C530.54 231.211 531.2 226.431 531.99 221.671C532.53 218.431 533.28 215.231 533.98 212.031C534.8 208.321 535.32 204.561 535.67 200.781C536.2 194.971 536.34 189.161 536.2 183.331C536.1 178.881 535.63 174.451 534.84 170.071C534.01 165.461 533.26 160.841 532.33 156.251C531.23 150.821 529.76 145.481 527.88 140.251C526.94 137.641 526.21 134.971 526.03 132.181C525.99 131.611 526.03 131.031 525.94 130.451C525.45 131.001 525.42 131.671 525.42 132.331C525.42 134.261 525.79 136.141 526.34 137.981C527.34 141.251 528.44 144.491 529.38 147.771C530.91 153.101 532.1 158.511 533.01 163.981C533.65 167.821 534.3 171.671 534.79 175.541C535.39 180.271 535.52 185.031 535.38 189.791C535.31 192.221 535.21 194.651 535.09 197.081C534.82 202.701 534.04 208.251 532.7 213.711C531.65 218.001 530.95 222.361 530.32 226.721C529.62 231.591 528.99 236.481 528.14 241.331C527.05 247.621 525.07 253.671 522.84 259.631C519.75 267.901 516.81 276.221 514.4 284.711C512.79 290.401 511.24 296.111 510.25 301.961C509.99 303.481 509.78 305.001 509.54 306.521C509.5 306.741 509.42 306.961 509.35 307.171C509.28 307.191 509.21 307.211 509.14 307.231L509.17 307.251Z" fill="#B59F73"/>
<path d="M568.67 238.971C568.6 238.301 568.52 237.641 568.46 236.971C568.32 235.301 568.33 233.601 568.03 231.961C567.53 229.211 566.89 226.481 566.21 223.761C564.85 218.291 563.27 212.861 562.07 207.351C560.99 202.401 559.86 197.481 558.18 192.691C555.53 185.131 553.28 177.451 551.83 169.571C551.17 166.001 550.61 162.421 550.47 158.791C550.39 156.871 550.33 154.961 550.25 153.041C549.93 145.981 550.05 138.931 550.32 131.881C550.39 130.071 550.57 128.261 550.62 126.441C550.67 124.561 550.66 122.671 550.61 120.791C550.55 118.601 550.41 116.411 550.29 114.221C550.15 111.631 550.18 109.021 549.72 106.451C549.42 104.771 549.25 103.061 549.09 101.361C548.8 98.1507 548.9 94.9307 549.07 91.7107C549.07 91.5707 549.16 91.4307 549.22 91.2407C549.76 91.7107 549.63 92.2507 549.63 92.7407C549.6 96.9207 549.8 101.071 550.41 105.221C551.11 109.931 552.2 114.501 554.26 118.791C556.35 123.141 558.6 127.411 560.83 131.691C563.82 137.431 566.59 143.261 568.87 149.331C572.27 158.351 573.91 167.651 573.66 177.281C573.57 180.841 573.35 184.391 573.1 187.951C572.85 191.501 572.49 195.041 572.19 198.591C571.87 202.381 571.48 206.161 571.27 209.951C571.07 213.571 571.01 217.211 571.01 220.841C571.01 225.401 571.08 229.951 570.37 234.471C570.17 235.751 569.84 237.001 569.53 238.261C569.46 238.551 569.21 238.791 569.04 239.061C568.92 239.031 568.8 239.001 568.67 238.981V238.971ZM551.12 116.121C551.42 119.741 551.56 123.371 551.43 127.001C551.29 130.761 551.06 134.521 550.98 138.291C550.91 142.051 550.95 145.821 551 149.591C551.03 152.161 551.17 154.721 551.23 157.291C551.34 161.651 551.99 165.941 552.82 170.211C554.18 177.201 556.09 184.051 558.44 190.771C560.3 196.101 561.71 201.551 562.86 207.091C564.01 212.601 565.62 218.021 566.98 223.501C567.66 226.251 568.27 229.021 568.81 231.801C569.07 233.131 569.11 234.511 569.42 235.891C569.55 234.791 569.67 233.681 569.81 232.581C570.55 226.781 569.99 220.951 570.23 215.131C570.38 211.681 570.57 208.221 570.81 204.781C571.06 201.201 571.38 197.621 571.69 194.041C571.92 191.311 572.26 188.591 572.41 185.861C572.61 182.411 572.75 178.951 572.78 175.491C572.81 170.551 572.39 165.641 571.34 160.801C570.01 154.661 567.87 148.781 565.37 143.031C562.8 137.121 559.69 131.491 556.7 125.791C554.67 121.911 552.7 118.001 551.37 113.801C551.33 113.681 551.28 113.561 551.23 113.441C551.19 113.451 551.14 113.461 551.1 113.471C551.1 114.361 551.04 115.251 551.11 116.121H551.12Z" fill="#B59F73"/>
<path d="M434.94 88.8007C436.36 87.6107 437.56 86.4807 438.88 85.5207C443.36 82.2407 447.94 79.1107 452.92 76.6307C459.51 73.3507 466.37 70.8607 473.64 69.6207C476.23 69.1807 478.86 68.8507 481.48 68.7407C485.69 68.5607 489.9 68.4907 494.11 68.5607C498.08 68.6307 502.05 68.8107 506 69.1907C510.66 69.6307 515.3 70.3407 519.94 70.9307C523.43 71.3707 526.93 71.8207 530.42 72.2207C532.83 72.5007 535.24 72.7807 537.66 72.9607C542.69 73.3207 547.71 73.2807 552.63 71.9607C552.88 71.8907 553.13 71.7907 553.38 71.5607C553.21 71.5507 553.04 71.5007 552.88 71.5207C550.68 71.8207 548.49 72.2407 546.28 72.3907C544.17 72.5407 542.03 72.4707 539.91 72.3807C537.79 72.2807 535.68 72.0507 533.57 71.8407C531.53 71.6407 529.49 71.4007 527.46 71.1407C524.65 70.7807 521.84 70.3707 519.03 69.9907C515.51 69.5207 511.98 69.0307 508.45 68.6307C505.87 68.3407 503.27 68.0707 500.68 67.9907C495.51 67.8307 490.34 67.7107 485.17 67.7307C475.75 67.7707 466.72 69.7607 458.02 73.3707C452.2 75.7807 446.82 78.9407 441.64 82.5007C439.15 84.2107 436.77 86.0507 434.54 88.0907C434.23 88.3807 433.96 88.7207 433.58 89.1507C433.93 89.3107 434.13 89.4307 434.33 89.4707C438.28 90.3007 442.22 91.1307 446.17 91.9407C448.78 92.4707 451.39 93.0307 454.02 93.4607C458.35 94.1707 462.71 94.5907 467.11 94.3707C470.81 94.1907 474.44 93.5307 478.08 92.8807C481.11 92.3407 484.13 91.7007 487.19 91.4207C489.84 91.1807 492.53 91.3007 495.19 91.4407C499.91 91.6907 504.61 92.0907 509.35 91.7107C521.1 90.7507 532.01 87.3307 541.85 80.7407C543.47 79.6507 545.09 78.5507 546.75 77.5407C550.32 75.3807 553.93 73.2807 557.52 71.1407C559.22 70.1207 560.91 69.0807 562.6 68.0407C562.77 67.9407 562.91 67.8007 563.06 67.6907C563.03 67.6307 563 67.5707 562.97 67.5007C562.57 67.6507 562.15 67.7607 561.79 67.9707C556.42 70.9807 550.87 73.6907 545.76 77.1707C541.82 79.8507 537.79 82.3707 533.52 84.5107C528.09 87.2407 522.35 88.9407 516.38 89.9507C512.73 90.5707 509.06 91.0007 505.36 91.0607C503.24 91.0907 501.11 91.0307 499 90.8707C495.14 90.5607 491.26 90.3107 487.41 90.6107C484.62 90.8207 481.86 91.3907 479.1 91.8907C474.49 92.7207 469.88 93.6207 465.17 93.6307C459.71 93.6507 454.33 92.8407 449 91.7407C444.55 90.8207 440.09 89.9707 435.63 89.0807C435.47 89.0507 435.32 88.9707 434.91 88.8107L434.94 88.8007Z" fill="#B59F73"/>
<path d="M524.83 132.361C524.35 133.741 523.9 135.121 523.4 136.491C520.95 143.261 518.99 150.161 517.88 157.271C517.5 159.701 517.38 162.171 517.19 164.621C516.75 170.481 517.25 176.331 517.45 182.171C517.57 185.591 517.99 188.991 518.14 192.411C518.27 195.351 518.25 198.301 518.22 201.251C518.19 204.261 518.18 207.281 517.97 210.281C517.71 214.031 517.25 217.771 516.86 221.511C516.08 228.991 514.08 236.201 512.18 243.441C512 244.121 511.91 244.821 511.78 245.511C511.86 245.531 511.93 245.561 512.01 245.581C512.12 245.361 512.27 245.151 512.34 244.911C514.14 238.961 515.86 232.971 516.87 226.831C517.43 223.431 517.8 219.991 518.17 216.561C518.49 213.641 518.74 210.701 518.91 207.771C519.04 205.551 519.03 203.321 519 201.091C518.95 197.081 518.9 193.081 518.76 189.071C518.68 186.921 518.38 184.781 518.26 182.621C518.12 180.301 518.06 177.971 517.97 175.641C517.91 174.201 517.81 172.761 517.83 171.331C517.88 168.351 517.92 165.371 518.11 162.411C518.55 155.511 520.18 148.841 522.31 142.281C523.72 137.921 525.17 133.571 526.73 129.271C527.32 127.641 528.18 126.101 529.07 124.601C538.69 108.471 548.86 92.7107 559.95 77.5507C565.66 69.7307 572.04 62.4907 578.81 55.5807C579.02 55.3707 579.25 55.1907 579.63 54.8607C579.63 56.0907 579.65 57.1207 579.63 58.1607C579.59 59.5307 579.48 60.9007 579.45 62.2607C579.38 65.9907 579.38 69.7307 579.25 73.4607C579.15 76.4407 578.89 79.4107 578.74 82.3807C578.49 87.1707 578.23 91.9607 578.51 96.7607C578.81 101.951 579.94 107.001 581.44 111.941C583.74 119.531 586.19 127.081 588.61 134.631C591.37 143.231 593.81 151.921 595.61 160.781C596.34 164.361 596.84 167.991 597.35 171.611C597.81 174.891 598.17 178.191 598.53 181.491C598.73 183.261 598.83 185.031 599 186.801C599.11 187.961 599.28 189.121 599.59 190.271C599.63 190.191 599.71 190.101 599.7 190.021C599.54 187.391 599.39 184.761 599.19 182.141C599 179.651 598.81 177.161 598.51 174.681C598.12 171.391 597.73 168.091 597.18 164.821C594.97 151.831 591.12 139.281 586.95 126.821C584.63 119.911 582.42 112.971 580.75 105.871C579.33 99.8507 578.96 93.7707 579.35 87.6107C579.47 85.7307 579.52 83.8507 579.62 81.9707C579.79 78.5807 580.02 75.2007 580.15 71.8207C580.24 69.4907 580.2 67.1607 580.25 64.8307C580.32 61.2007 580.42 57.5807 580.51 53.7807C582.26 52.1207 584.06 50.3407 585.95 48.6507C592.75 42.5807 599.96 37.0007 607.2 31.4707C609.98 29.3507 612.79 27.2907 615.58 25.2007C615.84 25.0007 616.04 24.7307 616.23 24.5307C616.11 24.0307 615.88 23.9007 615.52 24.0707C615.34 24.1507 615.16 24.2707 615 24.4007C611.23 27.2507 607.43 30.0607 603.71 32.9707C597.02 38.2107 590.26 43.3607 584.04 49.1607C579.45 53.4407 575.09 57.9407 570.95 62.6507C570.44 63.2307 569.86 63.6607 569.18 64.0107C565.32 66.0207 561.47 68.0107 557.42 69.6207C552.75 71.4707 547.93 72.7307 542.98 73.4807C539.29 74.0307 535.59 74.5007 531.88 74.8607C529.02 75.1307 526.14 75.2307 523.26 75.3007C513.61 75.5407 504.12 76.9107 494.7 78.9307C487.65 80.4407 480.59 81.9207 473.51 83.2907C469.79 84.0107 466.01 84.4907 462.21 84.6107C459.34 84.7007 456.46 84.7407 453.58 84.8107C453.2 84.8107 452.82 84.9107 452.46 84.9607C452.45 85.5707 452.78 85.5707 453.09 85.5707C455.8 85.5607 458.5 85.6007 461.21 85.5007C463.19 85.4307 465.17 85.2307 467.14 84.9607C470.49 84.5007 473.85 84.0407 477.16 83.3807C484.8 81.8607 492.41 80.1507 500.06 78.6707C503.95 77.9207 507.89 77.4407 511.83 76.9307C516.11 76.3807 520.42 76.2107 524.74 76.0807C532.38 75.8507 539.96 75.1107 547.45 73.5007C554.31 72.0307 560.71 69.4207 566.81 66.0107C567.37 65.7007 567.94 65.3807 568.61 65.1607C568.54 65.2807 568.49 65.4307 568.4 65.5307C559.29 76.0907 551.51 87.6107 543.89 99.2507C541.9 102.291 539.92 105.331 537.96 108.391C537.58 108.991 537.11 109.431 536.5 109.791C530.49 113.401 524.14 116.271 517.58 118.691C507.37 122.451 497.55 127.021 488.18 132.541C483.34 135.391 478.3 137.871 473.21 140.251C467.69 142.831 461.87 144.471 455.91 145.631C451.28 146.531 446.62 147.331 441.96 148.051C438.85 148.531 435.71 148.791 432.58 149.161C428.77 149.611 424.97 150.071 421.17 150.531C417.88 150.931 414.58 151.311 411.29 151.771C407.63 152.291 403.98 152.871 400.34 153.471C396.12 154.171 391.92 154.951 387.8 156.131C386.39 156.531 385.02 157.071 383.64 157.581C383.28 157.711 382.97 157.971 382.68 158.351C382.86 158.381 383.05 158.441 383.22 158.421C383.52 158.371 383.82 158.281 384.11 158.181C389.26 156.371 394.6 155.341 399.97 154.441C403.65 153.831 407.33 153.211 411.01 152.671C413.96 152.241 416.92 151.921 419.87 151.561C423.67 151.101 427.48 150.641 431.29 150.191C434.28 149.831 437.28 149.571 440.26 149.121C444.99 148.411 449.72 147.651 454.43 146.801C458.77 146.021 463.08 145.031 467.24 143.541C469.68 142.671 472.1 141.681 474.46 140.601C479.94 138.091 485.27 135.281 490.48 132.241C499.19 127.151 508.36 123.021 517.8 119.491C524 117.171 530.04 114.521 535.7 111.061C535.81 110.991 535.94 110.951 536.22 110.821C536.09 111.151 536.03 111.351 535.93 111.531C529.85 121.621 523.81 131.731 517.68 141.791C513.25 149.051 508.29 155.941 502.56 162.261C498.13 167.151 493.03 171.201 487.57 174.841C479.59 180.171 471.28 184.951 462.91 189.641C452.75 195.331 442.64 201.091 432.89 207.471C426.17 211.871 419.86 216.801 413.58 221.781C407.83 226.341 402.29 231.141 396.92 236.131C396.28 236.721 395.7 237.381 395.22 238.141C395.37 238.021 395.52 237.921 395.66 237.791C404.84 229.761 414.26 222.011 424.03 214.701C431.42 209.171 439.22 204.271 447.19 199.651C455.81 194.661 464.51 189.791 473.15 184.841C479.04 181.471 484.74 177.811 490.36 174.001C496.45 169.871 501.71 164.851 506.39 159.211C511.9 152.581 516.62 145.401 521.04 138.021C522.04 136.351 523.06 134.681 524.08 133.021C524.24 132.761 524.41 132.511 524.58 132.261C524.66 132.291 524.73 132.321 524.81 132.351L524.83 132.361Z" fill="#B59F73"/>
<path d="M507.48 270.561C507.48 269.981 507.48 269.401 507.48 268.821C507.38 263.531 508.4 258.441 510.05 253.451C510.38 252.451 510.63 251.421 510.89 250.401C510.96 250.131 510.94 249.841 510.82 249.521C509.97 250.731 509.8 252.191 509.32 253.521C508.83 254.861 508.45 256.251 508.13 257.651C507.8 259.071 507.53 260.521 507.33 261.971C507.13 263.391 507 264.821 506.94 266.251C506.88 267.701 506.83 269.161 507.25 270.571C507.33 270.571 507.41 270.571 507.48 270.571V270.561Z" fill="#B59F73"/>
<path d="M378.74 159.421C378.38 159.471 378.12 159.471 377.9 159.551C375.37 160.511 372.81 161.411 370.25 162.811C371.48 163.091 377.99 160.441 378.74 159.421Z" fill="#B59F73"/>
</svg>
